<svg width="218" height="143" viewBox="0 0 218 143" fill="none" xmlns="http://www.w3.org/2000/svg">
<path d="M0 101.231C0 91.5009 3.0427 82.7539 9.12825 75.1863C15.2138 67.6187 22.968 62.7046 32.489 60.5424C35.041 49.0435 40.832 39.5104 49.9604 32.2376C59.0887 24.8666 69.5912 21.2301 81.566 21.2301C93.1481 21.2301 103.553 24.7681 112.583 31.9426C121.711 39.1171 127.6 48.2573 130.25 59.4613H132.9C144.483 59.4613 154.298 63.4909 162.445 71.6482C170.592 79.8055 174.714 89.6336 174.714 101.132C174.714 112.73 170.592 122.558 162.445 130.715C154.298 138.872 144.483 143 132.9 143H41.9118C36.2189 143 30.8203 141.919 25.7163 139.658C20.6123 137.398 15.9991 134.646 12.2693 130.912C8.5394 127.177 5.59474 122.656 3.3372 117.545C1.07966 112.435 0 106.833 0 101.231ZM14.2323 101.231C14.2323 108.7 16.9807 115.187 22.281 120.494C27.5813 125.801 34.1575 128.553 41.8136 128.553H132.9C140.458 128.553 147.035 125.899 152.433 120.494C157.832 115.088 160.58 108.7 160.58 101.231C160.58 93.7613 157.93 87.2749 152.433 81.9677C147.035 76.6605 140.556 73.9086 132.9 73.9086H119.257C118.276 73.9086 117.785 73.4172 117.785 72.4344L117.098 67.6186C116.116 58.3802 112.19 50.6161 105.417 44.5227C98.6447 38.4293 90.5961 35.3825 81.3696 35.3825C72.1431 35.3825 64.0946 38.4293 57.2238 44.6209C50.353 50.7144 46.5249 58.4785 45.6416 67.6186L44.9546 71.7464C44.9546 72.7292 44.4638 73.2207 43.3841 73.2207L38.9672 73.9086C31.9001 74.4983 26.0109 77.4467 21.2013 82.6556C16.6862 87.8645 14.2323 94.0562 14.2323 101.231ZM101.099 15.5298C100.117 16.4143 100.313 17.1023 101.786 17.5937C106.006 19.4611 109.54 21.2301 112.386 22.9992C113.466 23.294 114.251 23.1958 114.546 22.7044C120.533 17.1024 127.404 14.2522 135.354 14.2522C143.305 14.2522 150.077 16.9058 155.967 22.2129C161.758 27.5201 164.997 34.1049 165.684 41.8691L166.567 48.1591H180.505C186.885 48.1591 192.382 50.4195 196.995 55.0387C201.608 59.6579 203.866 65.0634 203.866 71.3533C203.866 77.2502 201.805 82.3607 197.78 86.7834C193.756 91.206 188.75 93.6631 182.763 94.351C181.781 94.351 181.29 94.8425 181.29 95.9236V107.029C181.29 108.11 181.781 108.602 182.763 108.602C192.676 108.012 201.019 104.081 207.792 96.9063C214.565 89.7318 218 81.1814 218 71.3533C218 60.9356 214.368 52.0903 207.007 44.8175C199.645 37.4465 190.811 33.81 180.505 33.81H179.033C176.481 23.9819 171.082 15.9229 162.837 9.53462C154.691 3.14636 145.464 0.00136508 135.354 0.00136508C121.613 -0.0969157 110.129 5.11199 101.099 15.5298Z" fill="url(#paint0_linear)"/>
<defs>
<linearGradient id="paint0_linear" x1="207.5" y1="11" x2="29" y2="111" gradientUnits="userSpaceOnUse">
<stop stop-color="#E684AE"/>
<stop offset="0.338542" stop-color="#AE93C0"/>
<stop offset="1" stop-color="#77A1D3"/>
</linearGradient>
</defs>
</svg>
