<?xml version="1.0" encoding="utf-8"?>
<!-- Generator: Adobe Illustrator 24.2.1, SVG Export Plug-In . SVG Version: 6.00 Build 0)  -->
<svg version="1.1" id="圖層_1" xmlns="http://www.w3.org/2000/svg" xmlns:xlink="http://www.w3.org/1999/xlink" x="0px" y="0px"
	 viewBox="0 0 595.28 841.89" style="enable-background:new 0 0 595.28 841.89;" xml:space="preserve">
<style type="text/css">
	.st0{fill:#E18C25;}
	.st1{fill:none;stroke:#EA901F;stroke-width:30.0148;stroke-miterlimit:10;}
</style>
<g>
	<path class="st0" d="M320.23,623.05c0,5.83,0.11,11.66-0.02,17.49c-0.28,11.66-8.33,19.66-19.53,19.56
		c-11.08-0.09-19.13-8.41-19.18-19.95c-0.06-11.83-0.07-23.66,0-35.49c0.07-11.11,8.24-19.71,18.81-19.93
		c11.03-0.23,19.56,7.93,19.92,19.32c0.2,6.32,0.04,12.66,0.04,18.99C320.25,623.05,320.24,623.05,320.23,623.05z"/>
	<path class="st0" d="M165.22,315.52c-2.19-1.13-7.03-2.53-10.39-5.57c-9.14-8.24-17.74-17.1-26.4-25.86
		c-8.38-8.47-8.46-19.54-0.42-27.48c7.94-7.85,19.4-7.7,27.68,0.33c8.72,8.47,17.58,16.81,26.14,25.43
		c5.89,5.93,7.18,14.73,3.71,22.25C182.05,312.14,175.71,315.08,165.22,315.52z"/>
	<path class="st0" d="M407.48,290.42c1.14-2.13,2.62-6.93,5.7-10.27c8.46-9.18,17.48-17.84,26.47-26.51
		c7.64-7.37,20.39-7.11,27.57,0.29c7.7,7.94,7.5,19.06-0.62,27.16c-8.96,8.94-17.83,17.98-27.1,26.6
		c-6.28,5.83-13.88,6.08-21.46,2.67C410.71,307.06,407.69,300.86,407.48,290.42z"/>
	<path class="st0" d="M432.49,530.38c2.08,1.07,6.89,2.49,10.29,5.5c9.09,8.05,17.67,16.7,26.28,25.28
		c8.35,8.33,8.53,20.5,0.68,28.11c-8.11,7.86-19.42,7.39-28.04-1.05c-8.68-8.51-17.58-16.8-26.12-25.45
		c-5.67-5.75-7.11-12.89-3.84-20.29C415.1,534.86,421.25,530.7,432.49,530.38z"/>
	<path class="st0" d="M96.56,443.8c-6.16,0-12.32,0.11-18.47-0.02c-10.91-0.24-18.95-8.42-18.95-19.1
		c0.01-10.54,8.2-18.97,18.99-19.12c12.65-0.18,25.3-0.18,37.95-0.01c10.66,0.14,19.27,8.75,19.35,18.93
		c0.08,10.62-8.29,19.05-19.39,19.32c-6.49,0.16-12.98,0.03-19.47,0.03C96.56,443.81,96.56,443.8,96.56,443.8z"/>
	<path class="st0" d="M500.87,401.88c6.33,0,12.65-0.1,18.97,0.02c10.23,0.2,18.55,8.29,18.91,18.22
		c0.38,10.22-7.4,19.54-17.68,19.91c-13.63,0.49-27.3,0.51-40.93-0.01c-10.26-0.39-17.74-9.24-17.61-19.41
		c0.13-10.18,7.91-18.25,18.36-18.68C487.54,401.67,494.21,401.89,500.87,401.88z"/>
	<path class="st0" d="M190.35,554.92c-1.07,2.1-2.31,6.67-5.16,9.77c-8.77,9.56-17.99,18.73-27.33,27.74
		c-8.04,7.75-19.45,7.22-27.26-0.77c-7.51-7.68-7.34-18.77,0.51-26.79c8.51-8.68,17-17.37,25.69-25.87
		c6.08-5.95,14.85-7.46,22.2-3.94C186.26,538.54,189.91,544.53,190.35,554.92z"/>
	<path class="st0" d="M315.96,223.62c-0.01,6.16,0.11,12.32-0.03,18.47c-0.26,10.85-8.07,18.75-18.52,18.92
		c-10.77,0.18-19.31-7.56-19.59-18.42c-0.33-12.64-0.36-25.3-0.06-37.94c0.27-11.2,8.78-19.11,19.63-18.98
		c10.47,0.13,18.35,8.33,18.55,19.47C316.06,211.3,315.96,217.46,315.96,223.62z"/>
</g>
<circle class="st1" cx="296.77" cy="421.1" r="102.37"/>
</svg>
